<svg width="36" height="36" viewBox="0 0 36 36" fill="none" xmlns="http://www.w3.org/2000/svg">
<path d="M7 17.8828C7 17.5898 7.12891 17.3203 7.36328 17.0977L15.1211 9.35156C15.3789 9.09375 15.625 9 15.9062 9C16.4805 9 16.9375 9.42188 16.9375 10.0078C16.9375 10.2891 16.832 10.5586 16.6445 10.7461L14.0195 13.418L10.082 17.0156L12.9062 16.8398H27.7305C28.3398 16.8398 28.7617 17.2734 28.7617 17.8828C28.7617 18.4922 28.3398 18.9258 27.7305 18.9258H12.9062L10.0703 18.75L14.0195 22.3477L16.6445 25.0195C16.832 25.1953 16.9375 25.4766 16.9375 25.7578C16.9375 26.3438 16.4805 26.7656 15.9062 26.7656C15.625 26.7656 15.3789 26.6602 15.1445 26.4375L7.36328 18.668C7.12891 18.4453 7 18.1758 7 17.8828Z" fill="#393939"/>
</svg>
