<svg width="36" height="36" viewBox="0 0 36 36" fill="none" xmlns="http://www.w3.org/2000/svg">
<path d="M18 0C8.0625 0 0 8.0625 0 18C0 27.9375 8.0625 36 18 36C27.9375 36 36 27.9375 36 18C36 8.0625 27.9375 0 18 0Z" fill="#0073FA"/>
<path d="M26.3325 16.9797C26.3325 12.6747 22.8375 9.17969 18.5325 9.17969H14.31V24.7797H18.5325C22.8375 24.7797 26.3325 21.2847 26.3325 16.9797Z" fill="#CCE7FF"/>
<path d="M15.4502 8.57977H14.2277C10.9877 8.57977 8.37023 11.2048 8.37023 14.4373V32.0173H20.3027L15.4502 8.57227V8.57977Z" fill="#CCE7FF"/>
<path d="M21.1426 4.60547H13.3951C10.1551 4.60547 7.53758 7.23047 7.53758 10.463V10.883H16.9576C19.2676 10.883 21.1426 9.00797 21.1426 6.69797V4.60547ZM12.3526 10.883H7.53758V19.883C7.53758 21.038 8.47508 21.9755 9.63008 21.9755H12.3526V10.883Z" fill="#1141A8"/>
<path d="M13.2077 19.5827C11.6585 19.5827 10.4027 18.3268 10.4027 16.7777C10.4027 15.2285 11.6585 13.9727 13.2077 13.9727C14.7569 13.9727 16.0127 15.2285 16.0127 16.7777C16.0127 18.3268 14.7569 19.5827 13.2077 19.5827Z" fill="#CCE7FF"/>
<path d="M26.6925 11.8652C26.58 11.8652 26.49 11.9552 26.49 12.0677V16.5377C26.49 16.6502 26.58 16.7402 26.6925 16.7402C26.805 16.7402 26.895 16.6502 26.895 16.5377V12.0677C26.895 11.9552 26.805 11.8652 26.6925 11.8652Z" fill="#ABB1BF"/>
<path d="M12.27 6.58496C13.17 6.58496 13.8975 7.31246 13.8975 8.21246V16.0125C12.9975 16.0125 12.27 15.285 12.27 14.385V6.58496Z" fill="#1141A8"/>
<path d="M28.5675 15.3071L23.4075 10.8896V18.9371L28.26 17.0846C29.0025 16.7996 29.1675 15.8246 28.5675 15.3146" fill="#CCE7FF"/>
<path d="M21.4125 12.8398C21.075 12.8398 20.805 13.1098 20.805 13.4473V14.9923C20.805 15.3298 21.075 15.5998 21.4125 15.5998C21.75 15.5998 22.02 15.3298 22.02 14.9923V13.4473C22.02 13.1098 21.75 12.8398 21.4125 12.8398Z" fill="#0B327C"/>
<path d="M24.1725 11.8652C24.06 11.8652 23.97 11.9552 23.97 12.0677V16.5377C23.97 16.6502 24.06 16.7402 24.1725 16.7402C24.285 16.7402 24.375 16.6502 24.375 16.5377V12.0677C24.375 11.9552 24.285 11.8652 24.1725 11.8652Z" fill="#ABB1BF"/>
<path d="M12.4423 14.1377H24.2173C24.3085 14.1377 24.3823 14.2099 24.3823 14.2989C24.3823 14.388 24.3085 14.4602 24.2173 14.4602H12.4423C12.3512 14.4602 12.2773 14.388 12.2773 14.2989C12.2773 14.2099 12.3512 14.1377 12.4423 14.1377Z" fill="#ABB1BF"/>
<path d="M22.02 19.5825H21.435C20.8425 19.5825 20.295 19.275 19.9875 18.7725" fill="black"/>
<path d="M22.02 19.5825H21.435C20.8425 19.5825 20.295 19.275 19.9875 18.7725" stroke="#1141A8" stroke-width="1.12" stroke-linecap="round" stroke-linejoin="round"/>
<path d="M8.81234 27.5996H5.99984V35.9996H25.4023L21.3673 32.3921C17.9173 29.3096 13.4473 27.5996 8.81234 27.5996Z" fill="#F2F4F7"/>
</svg>
