<svg width="16" height="16" viewBox="0 0 16 16" fill="none" xmlns="http://www.w3.org/2000/svg">
<g id="IconAlert">
<path id="&#244;&#128;&#158;&#160;" d="M8 15C7.88264 15 7.7066 14.9648 7.51589 14.8662C3.41565 12.6479 2 11.7183 2 9.19014V3.88028C2 3.15493 2.33007 2.91549 2.93888 2.67606C3.79707 2.34507 6.54034 1.3662 7.39853 1.09859C7.58924 1.04225 7.79462 1 8 1C8.20538 1 8.41076 1.03521 8.6088 1.09859C9.45966 1.38028 12.2029 2.33803 13.0611 2.67606C13.6773 2.92254 14 3.15493 14 3.88028V9.19014C14 11.7183 12.6577 12.7676 8.48411 14.8662C8.30073 14.9577 8.11736 15 8 15ZM8 9.0493C8.36675 9.0493 8.57946 8.85211 8.5868 8.47183L8.68949 4.64084C8.69682 4.26761 8.39609 3.99296 7.99266 3.99296C7.58191 3.99296 7.29584 4.26056 7.30318 4.6338L7.40587 8.47183C7.4132 8.84507 7.61858 9.0493 8 9.0493ZM8 11.4085C8.4401 11.4085 8.82152 11.0775 8.82152 10.6549C8.82152 10.2324 8.44743 9.89437 8 9.89437C7.55257 9.89437 7.17848 10.2394 7.17848 10.6549C7.17848 11.0704 7.5599 11.4085 8 11.4085Z" fill="#0073F9"/>
</g>
</svg>
