<svg width="14" height="14" viewBox="0 0 14 14" fill="none" xmlns="http://www.w3.org/2000/svg">
<path fill-rule="evenodd" clip-rule="evenodd" d="M14 7C14 10.8661 10.8661 14 7 14C3.1339 14 0 10.8661 0 7C0 3.1339 3.1339 0 7 0C10.8661 0 14 3.1339 14 7ZM7 12.6C8.48521 12.6 9.90959 12.01 10.9598 10.9598C12.01 9.90959 12.6 8.48521 12.6 7C12.6 5.51479 12.01 4.09041 10.9598 3.0402C9.90959 1.99 8.48521 1.4 7 1.4C5.51479 1.4 4.09041 1.99 3.0402 3.0402C1.99 4.09041 1.4 5.51479 1.4 7C1.4 8.48521 1.99 9.90959 3.0402 10.9598C4.09041 12.01 5.51479 12.6 7 12.6Z" fill="#FF3033"/>
<path fill-rule="evenodd" clip-rule="evenodd" d="M7.00029 8.4C6.81464 8.4 6.63659 8.32625 6.50532 8.19497C6.37404 8.0637 6.30029 7.88565 6.30029 7.7V4.2C6.30029 4.01435 6.37404 3.8363 6.50532 3.70503C6.63659 3.57375 6.81464 3.5 7.00029 3.5C7.18594 3.5 7.36399 3.57375 7.49527 3.70503C7.62654 3.8363 7.70029 4.01435 7.70029 4.2V7.7C7.70029 7.88565 7.62654 8.0637 7.49527 8.19497C7.36399 8.32625 7.18594 8.4 7.00029 8.4Z" fill="#FF3033"/>
<path d="M6.30029 9.80059C6.30029 9.61493 6.37404 9.43689 6.50532 9.30561C6.63659 9.17434 6.81464 9.10059 7.00029 9.10059C7.18594 9.10059 7.36399 9.17434 7.49527 9.30561C7.62654 9.43689 7.70029 9.61493 7.70029 9.80059C7.70029 9.98624 7.62654 10.1643 7.49527 10.2956C7.36399 10.4268 7.18594 10.5006 7.00029 10.5006C6.81464 10.5006 6.63659 10.4268 6.50532 10.2956C6.37404 10.1643 6.30029 9.98624 6.30029 9.80059Z" fill="#FF3033"/>
</svg>
