<svg width="19" height="18" viewBox="0 0 19 18" fill="none" xmlns="http://www.w3.org/2000/svg">
<path fill-rule="evenodd" clip-rule="evenodd" d="M8 17C8 16.7348 7.89464 16.4804 7.70711 16.2929C7.51957 16.1054 7.26522 16 7 16H2V2H7C7.26522 2 7.51957 1.89464 7.70711 1.70711C7.89464 1.51957 8 1.26522 8 1C8 0.734784 7.89464 0.48043 7.70711 0.292893C7.51957 0.105357 7.26522 0 7 0H2C1.46957 0 0.960859 0.210714 0.585786 0.585786C0.210714 0.960859 0 1.46957 0 2V16C0 16.5304 0.210714 17.0391 0.585786 17.4142C0.960859 17.7893 1.46957 18 2 18H7C7.26522 18 7.51957 17.8946 7.70711 17.7071C7.89464 17.5196 8 17.2652 8 17Z" fill="#393939"/>
<path d="M18.714 9.69959C18.8966 9.51343 18.9992 9.26333 19 9.00259V8.99659C18.9991 8.73244 18.8938 8.47935 18.707 8.29259L14.707 4.29259C14.6148 4.19708 14.5044 4.1209 14.3824 4.06849C14.2604 4.01608 14.1292 3.9885 13.9964 3.98734C13.8636 3.98619 13.7319 4.01149 13.609 4.06177C13.4862 4.11205 13.3745 4.18631 13.2806 4.2802C13.1867 4.37409 13.1125 4.48574 13.0622 4.60864C13.0119 4.73154 12.9866 4.86321 12.9877 4.99599C12.9889 5.12877 13.0165 5.25999 13.0689 5.382C13.1213 5.504 13.1975 5.61435 13.293 5.70659L15.586 7.99959H6C5.73478 7.99959 5.48043 8.10495 5.29289 8.29249C5.10536 8.48002 5 8.73438 5 8.99959C5 9.26481 5.10536 9.51916 5.29289 9.7067C5.48043 9.89424 5.73478 9.99959 6 9.99959H15.586L13.293 12.2926C13.1108 12.4812 13.01 12.7338 13.0123 12.996C13.0146 13.2582 13.1198 13.509 13.3052 13.6944C13.4906 13.8798 13.7414 13.985 14.0036 13.9873C14.2658 13.9895 14.5184 13.8888 14.707 13.7066L18.707 9.70659L18.714 9.69959Z" fill="#393939"/>
</svg>
