<svg width="12" height="12" viewBox="0 0 12 12" fill="none" xmlns="http://www.w3.org/2000/svg">
<path d="M6.24316 8.77539C6.11621 8.77539 6.00391 8.72656 5.91113 8.63379L2.13184 4.7666C2.04883 4.67871 2 4.57129 2 4.44922C2 4.19531 2.19043 4 2.44434 4C2.57129 4 2.68359 4.04883 2.76172 4.12695L6.24316 7.68164L9.71973 4.12695C9.80273 4.04883 9.91504 4 10.0371 4C10.291 4 10.4814 4.19531 10.4814 4.44922C10.4814 4.57129 10.4326 4.67871 10.3496 4.76172L6.57031 8.63379C6.4873 8.72656 6.36523 8.77539 6.24316 8.77539Z" fill="#393939"/>
</svg>
