<svg width="24" height="24" viewBox="0 0 24 24" fill="none" xmlns="http://www.w3.org/2000/svg">
<path d="M19.48 19L16.1021 15.6221M16.1021 15.6221C16.6799 15.0444 17.1383 14.3584 17.451 13.6035C17.7637 12.8486 17.9246 12.0394 17.9246 11.2223C17.9246 10.4052 17.7637 9.59606 17.451 8.84114C17.1383 8.08621 16.6799 7.40027 16.1021 6.82247C15.5243 6.24468 14.8384 5.78635 14.0835 5.47365C13.3285 5.16094 12.5194 5 11.7023 5C10.8852 5 10.076 5.16094 9.32112 5.47365C8.56619 5.78635 7.88025 6.24468 7.30245 6.82247C6.13554 7.98938 5.47998 9.57205 5.47998 11.2223C5.47998 12.8726 6.13554 14.4552 7.30245 15.6221C8.46936 16.7891 10.052 17.4446 11.7023 17.4446C13.3526 17.4446 14.9352 16.7891 16.1021 15.6221Z" stroke="#A8ABBD" stroke-width="2" stroke-linecap="round" stroke-linejoin="round"/>
</svg>