<svg width="18" height="18" viewBox="0 0 18 18" fill="none" xmlns="http://www.w3.org/2000/svg">
<path d="M12.9314 11.3979C13.7664 11.3979 14.6153 11.2457 15.1789 11.0173C15.3459 10.955 15.4294 10.9481 15.5408 10.9481C15.7565 10.9481 16 11.1419 16 11.4256C16 11.5017 15.9861 11.654 15.9026 11.8339C14.7753 14.4221 12.3191 16 9.29225 16C5.06859 16 2 12.9412 2 8.74048C2 5.83391 3.80915 3.13495 6.3837 2.09689C6.57853 2.02076 6.71074 2 6.7664 2C7.05865 2 7.27435 2.2699 7.27435 2.49827C7.27435 2.63668 7.25348 2.73356 7.14911 2.93426C6.89165 3.43253 6.71769 4.35986 6.71769 5.41176C6.71769 9.10035 9.09741 11.3979 12.9314 11.3979ZM3.09245 8.69204C3.09245 12.3045 5.72266 14.9204 9.334 14.9204C11.5746 14.9204 13.6133 13.8616 14.671 12.1246C14.0934 12.3253 13.4881 12.4083 12.7714 12.4083C8.33201 12.4083 5.68091 9.83391 5.68091 5.50865C5.68091 4.71972 5.7992 4.00692 6.02187 3.36332C4.21968 4.49135 3.09245 6.53979 3.09245 8.69204Z" fill="#828690"/>
</svg>
