<svg width="18" height="18" viewBox="0 0 18 18" fill="none" xmlns="http://www.w3.org/2000/svg">
<path d="M4.20572 15C2.73758 15 2 14.2727 2 12.811V4.18903C2 2.72732 2.73758 2 4.20572 2H13.8013C15.2694 2 16 2.73438 16 4.18903V12.811C16 14.2656 15.2694 15 13.8013 15H4.20572ZM4.10035 13.8631H13.8926C14.5178 13.8631 14.869 13.5312 14.869 12.8745V6.21564C14.869 5.566 14.5178 5.22705 13.8926 5.22705H4.10035C3.47516 5.22705 3.13096 5.566 3.13096 6.21564V12.8745C3.13096 13.5312 3.47516 13.8631 4.10035 13.8631ZM7.63372 7.76209C7.38786 7.76209 7.30356 7.69147 7.30356 7.44432V7.0277C7.30356 6.78055 7.38786 6.70288 7.63372 6.70288H8.04817C8.29403 6.70288 8.3713 6.78055 8.3713 7.0277V7.44432C8.3713 7.69147 8.29403 7.76209 8.04817 7.76209H7.63372ZM9.96588 7.76209C9.72002 7.76209 9.63573 7.69147 9.63573 7.44432V7.0277C9.63573 6.78055 9.72002 6.70288 9.96588 6.70288H10.3803C10.6262 6.70288 10.7105 6.78055 10.7105 7.0277V7.44432C10.7105 7.69147 10.6262 7.76209 10.3803 7.76209H9.96588ZM12.298 7.76209C12.0522 7.76209 11.9749 7.69147 11.9749 7.44432V7.0277C11.9749 6.78055 12.0522 6.70288 12.298 6.70288H12.7125C12.9584 6.70288 13.0426 6.78055 13.0426 7.0277V7.44432C13.0426 7.69147 12.9584 7.76209 12.7125 7.76209H12.298ZM5.30156 10.0712C5.04867 10.0712 4.9714 10.0005 4.9714 9.7534V9.33677C4.9714 9.08963 5.04867 9.01901 5.30156 9.01901H5.70898C5.96187 9.01901 6.03914 9.08963 6.03914 9.33677V9.7534C6.03914 10.0005 5.96187 10.0712 5.70898 10.0712H5.30156ZM7.63372 10.0712C7.38786 10.0712 7.30356 10.0005 7.30356 9.7534V9.33677C7.30356 9.08963 7.38786 9.01901 7.63372 9.01901H8.04817C8.29403 9.01901 8.3713 9.08963 8.3713 9.33677V9.7534C8.3713 10.0005 8.29403 10.0712 8.04817 10.0712H7.63372ZM9.96588 10.0712C9.72002 10.0712 9.63573 10.0005 9.63573 9.7534V9.33677C9.63573 9.08963 9.72002 9.01901 9.96588 9.01901H10.3803C10.6262 9.01901 10.7105 9.08963 10.7105 9.33677V9.7534C10.7105 10.0005 10.6262 10.0712 10.3803 10.0712H9.96588ZM12.298 10.0712C12.0522 10.0712 11.9749 10.0005 11.9749 9.7534V9.33677C11.9749 9.08963 12.0522 9.01901 12.298 9.01901H12.7125C12.9584 9.01901 13.0426 9.08963 13.0426 9.33677V9.7534C13.0426 10.0005 12.9584 10.0712 12.7125 10.0712H12.298ZM5.30156 12.3873C5.04867 12.3873 4.9714 12.3096 4.9714 12.0625V11.6458C4.9714 11.3987 5.04867 11.3281 5.30156 11.3281H5.70898C5.96187 11.3281 6.03914 11.3987 6.03914 11.6458V12.0625C6.03914 12.3096 5.96187 12.3873 5.70898 12.3873H5.30156ZM7.63372 12.3873C7.38786 12.3873 7.30356 12.3096 7.30356 12.0625V11.6458C7.30356 11.3987 7.38786 11.3281 7.63372 11.3281H8.04817C8.29403 11.3281 8.3713 11.3987 8.3713 11.6458V12.0625C8.3713 12.3096 8.29403 12.3873 8.04817 12.3873H7.63372ZM9.96588 12.3873C9.72002 12.3873 9.63573 12.3096 9.63573 12.0625V11.6458C9.63573 11.3987 9.72002 11.3281 9.96588 11.3281H10.3803C10.6262 11.3281 10.7105 11.3987 10.7105 11.6458V12.0625C10.7105 12.3096 10.6262 12.3873 10.3803 12.3873H9.96588Z" fill="#828690"/>
</svg>
