<svg width="24" height="24" viewBox="0 0 24 24" fill="none" xmlns="http://www.w3.org/2000/svg">
<path d="M3 10.2858C3.00019 8.87744 3.46289 7.50809 4.31697 6.38823C5.17105 5.26838 6.36925 4.45998 7.72743 4.08729C9.0856 3.7146 10.5286 3.79824 11.8346 4.32536C13.1406 4.85248 14.2374 5.7939 14.9564 7.00493C15.6753 8.21597 15.9767 9.62961 15.8142 11.0286C15.6517 12.4275 15.0342 13.7344 14.0567 14.7484C13.0793 15.7623 11.7959 16.4272 10.4038 16.6409C9.01171 16.8545 7.58798 16.6051 6.35143 15.931C6.20607 15.8515 6.03565 15.8313 5.87571 15.8744L3.09 16.6201L3.83743 13.8327C3.88011 13.6733 3.85985 13.5036 3.78086 13.3587C3.26673 12.4162 2.99819 11.3594 3 10.2858ZM9.42857 2.57153C8.11292 2.57129 6.81907 2.90752 5.67001 3.54829C4.52094 4.18905 3.55484 5.11305 2.86355 6.23245C2.17226 7.35184 1.77875 8.62944 1.72042 9.94379C1.66209 11.2582 1.94088 12.5656 2.53029 13.7418L1.752 16.6467C1.70356 16.8282 1.70371 17.0193 1.75244 17.2007C1.80116 17.3822 1.89674 17.5477 2.0296 17.6805C2.16245 17.8134 2.32791 17.9089 2.50936 17.9577C2.69082 18.0064 2.8819 18.0065 3.06343 17.9581L5.96657 17.1815C7.00705 17.7033 8.15212 17.9829 9.31599 17.9993C10.4799 18.0158 11.6324 17.7686 12.6871 17.2763C13.7419 16.7841 14.6716 16.0595 15.4066 15.157C16.1416 14.2544 16.6628 13.1972 16.9312 12.0645C17.1996 10.9319 17.2082 9.75325 16.9564 8.61683C16.7045 7.48041 16.1988 6.41571 15.4771 5.5025C14.7553 4.58929 13.8363 3.85124 12.7888 3.34366C11.7413 2.83607 10.5926 2.5721 9.42857 2.57153ZM14.5714 21.4287C13.4808 21.4298 12.4023 21.1992 11.4075 20.7521C10.4127 20.3049 9.52429 19.6514 8.80114 18.835C9.40408 18.8793 10.01 18.8598 10.6089 18.7767C11.739 19.6638 13.1347 20.145 14.5714 20.143C15.6467 20.1447 16.705 19.8752 17.6486 19.3595C17.7939 19.2801 17.9643 19.2598 18.1243 19.303L20.91 20.0487L20.1626 17.2612C20.1199 17.1018 20.1401 16.9321 20.2191 16.7872C20.7319 15.8442 21.0003 14.7878 21 13.7144C21.0003 12.5731 20.6968 11.4523 20.1206 10.4671C19.5444 9.48193 18.7163 8.66791 17.7214 8.10868C17.5675 7.52357 17.352 6.95641 17.0786 6.41668C18.1189 6.77436 19.0706 7.35029 19.8702 8.10588C20.6697 8.86146 21.2984 9.77923 21.7142 10.7977C22.1301 11.8161 22.3234 12.9117 22.2812 14.0109C22.239 15.1101 21.9624 16.1877 21.4697 17.1712L22.248 20.0752C22.2965 20.2569 22.2964 20.4481 22.2476 20.6296C22.1989 20.8112 22.1032 20.9767 21.9702 21.1096C21.8373 21.2425 21.6717 21.338 21.4901 21.3867C21.3085 21.4353 21.1173 21.4353 20.9357 21.3867L18.0334 20.6101C16.959 21.149 15.7734 21.4293 14.5714 21.4287ZM10.2857 14.143C10.2857 14.3703 10.1954 14.5883 10.0347 14.7491C9.87392 14.9098 9.6559 15.0001 9.42857 15.0001C9.20124 15.0001 8.98323 14.9098 8.82248 14.7491C8.66174 14.5883 8.57143 14.3703 8.57143 14.143C8.57143 13.9156 8.66174 13.6976 8.82248 13.5369C8.98323 13.3761 9.20124 13.2858 9.42857 13.2858C9.6559 13.2858 9.87392 13.3761 10.0347 13.5369C10.1954 13.6976 10.2857 13.9156 10.2857 14.143ZM8.14286 7.93468L8.14457 7.90725C8.15931 7.72492 8.21279 7.54783 8.30143 7.38782C8.43172 7.15553 8.70257 6.85725 9.42857 6.85725C10.1546 6.85725 10.4254 7.15553 10.5557 7.38696C10.6484 7.55433 10.7026 7.74028 10.7143 7.93125V7.93382C10.7126 8.38125 10.4529 8.66925 9.93086 9.24868L9.91543 9.26668C9.41829 9.81782 8.78572 10.5644 8.78572 11.7858C8.78572 11.9563 8.85344 12.1198 8.974 12.2404C9.09456 12.3609 9.25808 12.4287 9.42857 12.4287C9.59907 12.4287 9.76258 12.3609 9.88314 12.2404C10.0037 12.1198 10.0714 11.9563 10.0714 11.7858C10.0714 11.0787 10.4023 10.6467 10.8703 10.1272L10.9774 10.0098C11.4069 9.5401 12 8.8921 12 7.92868V7.92696L11.9991 7.88496L11.994 7.80353C11.9647 7.43568 11.8565 7.07845 11.6769 6.7561C11.3237 6.13039 10.6303 5.57153 9.42857 5.57153C8.22686 5.57153 7.53257 6.13039 7.18114 6.7561C6.9834 7.11056 6.87237 7.50679 6.85714 7.91239V7.92868C6.85635 8.09917 6.92331 8.263 7.04331 8.38412C7.16331 8.50524 7.3265 8.57374 7.497 8.57453C7.6675 8.57533 7.83133 8.50836 7.95245 8.38837C8.07357 8.26837 8.14206 8.10517 8.14286 7.93468Z" fill="#30343F"/>
</svg>
