<svg width="24" height="24" viewBox="0 0 24 24" fill="none" xmlns="http://www.w3.org/2000/svg">
<path d="M15.75 7.5H12.75V4.5H11.25V7.5H8.25V9H11.25V12H12.75V9H15.75V7.5Z" fill="#30343F"/>
<path d="M21 7.5H19.5V3C19.5 2.60218 19.342 2.22064 19.0607 1.93934C18.7794 1.65804 18.3978 1.5 18 1.5H6C5.60218 1.5 5.22064 1.65804 4.93934 1.93934C4.65804 2.22064 4.5 2.60218 4.5 3V7.5H3C2.60218 7.5 2.22064 7.65804 1.93934 7.93934C1.65804 8.22064 1.5 8.60218 1.5 9V22.5H22.5V9C22.5 8.60218 22.342 8.22064 22.0607 7.93934C21.7794 7.65804 21.3978 7.5 21 7.5ZM10.5 21V16.5H13.5V21H10.5ZM15 21V15.75C15 15.5511 14.921 15.3603 14.7803 15.2197C14.6397 15.079 14.4489 15 14.25 15H9.75C9.55109 15 9.36032 15.079 9.21967 15.2197C9.07902 15.3603 9 15.5511 9 15.75V21H3V9H6V3H18V9H21V21H15Z" fill="#30343F"/>
</svg>
