<svg width="16" height="16" viewBox="0 0 16 16" fill="none" xmlns="http://www.w3.org/2000/svg">
<path d="M4.30238 13.8962C4.08084 13.721 4.03221 13.4326 4.1673 13.0198L5.29662 9.50299L2.41118 7.33182C2.07617 7.08304 1.93568 6.82295 2.02754 6.54024C2.11399 6.26885 2.36795 6.13315 2.78402 6.1388L6.32327 6.16142L7.39855 2.62761C7.52823 2.2092 7.72276 2 7.99833 2C8.27931 2 8.47384 2.2092 8.60352 2.62761L9.6788 6.16142L13.2181 6.1388C13.6341 6.13315 13.8881 6.26885 13.9745 6.54024C14.061 6.82295 13.9259 7.08304 13.5909 7.33182L10.7055 9.50299L11.8348 13.0198C11.9699 13.4326 11.9212 13.721 11.6997 13.8962C11.4727 14.0772 11.1972 14.015 10.8622 13.7605L7.99833 11.5611L5.13992 13.7605C4.8049 14.015 4.52392 14.0772 4.30238 13.8962Z" fill="#393939"/>
</svg>
