<svg width="24" height="24" viewBox="0 0 24 24" fill="none" xmlns="http://www.w3.org/2000/svg">
<path d="M7.15162 16.1384C6.94654 15.9392 6.9524 15.5994 7.15162 15.4002L10.9016 11.6443L7.15162 7.89429C6.9524 7.69508 6.9524 7.36109 7.15162 7.15601C7.35084 6.94508 7.69654 6.95094 7.89576 7.15601L11.6458 10.906L15.3958 7.15601C15.595 6.95094 15.9348 6.95094 16.1399 7.15601C16.345 7.35523 16.3391 7.69508 16.1399 7.89429L12.3899 11.6443L16.1399 15.4002C16.3391 15.5994 16.3391 15.9334 16.1399 16.1384C15.9407 16.3435 15.595 16.3377 15.3958 16.1384L11.6458 12.3884L7.89576 16.1384C7.69654 16.3377 7.3567 16.3377 7.15162 16.1384Z" fill="#393939"/>
</svg>
