<svg width="32" height="32" viewBox="0 0 32 32" fill="none" xmlns="http://www.w3.org/2000/svg">
<path d="M16.5 5C21.1945 5 25 8.19005 25 13.6587C25 15.8298 23.6605 18.503 22.045 20.9384L21.7735 21.3417C21.6818 21.4754 21.59 21.6082 21.498 21.74L21.219 22.1324L21.079 22.3261L20.7985 22.7084L20.517 23.0821L20.237 23.4481L19.959 23.8044L19.684 24.1508L19.413 24.4857L19.1475 24.8093L18.888 25.1201L18.5135 25.5621L18.1595 25.9714L17.8295 26.346L17.726 26.4626C17.049 27.1936 15.9125 27.1645 15.2745 26.4626L14.9535 26.1008L14.6075 25.7025L14.364 25.4186L14.1125 25.1206L13.721 24.6493L13.4525 24.3198L13.1795 23.9794L12.903 23.6281L12.6235 23.2671L12.3425 22.8971L12.0615 22.5188C11.9682 22.3912 11.8748 22.2626 11.7815 22.1328L11.5025 21.7409L11.227 21.3422L10.9555 20.9389C9.3395 18.503 8 15.8298 8 13.6587C8 8.19005 11.8055 5 16.5 5ZM16.5 6.82289C12.689 6.82289 10 9.41229 10 13.6587C10 15.1831 10.873 17.2188 12.305 19.4678L12.5565 19.8551L12.818 20.2466L13.09 20.6417L13.2295 20.8404L13.516 21.2396L13.812 21.642L14.117 22.0467L14.4305 22.4532L14.7525 22.8615L14.9165 23.0666L15.2505 23.4768L15.553 23.8409L15.709 24.0255C15.8025 24.1355 15.9223 24.2245 16.0594 24.2858C16.1964 24.3471 16.3471 24.379 16.4998 24.379C16.6524 24.379 16.8031 24.3471 16.9401 24.2858C17.0772 24.2245 17.197 24.1355 17.2905 24.0255L17.5745 23.6882L17.9125 23.2762L18.243 22.8661L18.5655 22.4573L18.88 22.0499L19.185 21.6448C19.2857 21.5102 19.3845 21.3759 19.4815 21.2419L19.7685 20.8422C20.0038 20.5099 20.2285 20.1811 20.4425 19.8561L20.6935 19.4687C22.1275 17.2179 23 15.1822 23 13.6587C23 9.41229 20.311 6.82289 16.5 6.82289ZM16.5 9.10149C17.5609 9.10149 18.5783 9.4856 19.3284 10.1693C20.0786 10.853 20.5 11.7803 20.5 12.7473C20.5 13.7142 20.0786 14.6415 19.3284 15.3252C18.5783 16.0089 17.5609 16.393 16.5 16.393C15.4391 16.393 14.4217 16.0089 13.6716 15.3252C12.9214 14.6415 12.5 13.7142 12.5 12.7473C12.5 11.7803 12.9214 10.853 13.6716 10.1693C14.4217 9.4856 15.4391 9.10149 16.5 9.10149ZM16.5 10.9244C15.9696 10.9244 15.4609 11.1164 15.0858 11.4583C14.7107 11.8001 14.5 12.2638 14.5 12.7473C14.5 13.2307 14.7107 13.6944 15.0858 14.0362C15.4609 14.3781 15.9696 14.5701 16.5 14.5701C17.0304 14.5701 17.5391 14.3781 17.9142 14.0362C18.2893 13.6944 18.5 13.2307 18.5 12.7473C18.5 12.2638 18.2893 11.8001 17.9142 11.4583C17.5391 11.1164 17.0304 10.9244 16.5 10.9244Z" fill="#393939"/>
</svg>
