<svg width="36" height="36" viewBox="0 0 36 36" fill="none" xmlns="http://www.w3.org/2000/svg">
<path d="M9 12C9 11.4477 9.44772 11 10 11H26C26.5523 11 27 11.4477 27 12C27 12.5523 26.5523 13 26 13H10C9.44772 13 9 12.5523 9 12Z" fill="#393939"/>
<path d="M9 18C9 17.4477 9.44772 17 10 17H26C26.5523 17 27 17.4477 27 18C27 18.5523 26.5523 19 26 19H10C9.44772 19 9 18.5523 9 18Z" fill="#393939"/>
<path d="M9 24C9 23.4477 9.44772 23 10 23H26C26.5523 23 27 23.4477 27 24C27 24.5523 26.5523 25 26 25H10C9.44772 25 9 24.5523 9 24Z" fill="#393939"/>
</svg>
