<svg width="18" height="18" viewBox="0 0 18 18" fill="none" xmlns="http://www.w3.org/2000/svg">
<g id="Group">
<path id="Vector" d="M17.2657 7.82416L1.43437 0.100797C1.28224 0.0266595 1.11374 -0.00754841 0.944734 0.00139332C0.775731 0.0103351 0.611782 0.0621323 0.468318 0.15191C0.324854 0.241688 0.206592 0.366493 0.124664 0.51458C0.042736 0.662668 -0.000164434 0.829166 4.73632e-07 0.998406V1.02704C8.15041e-05 1.16084 0.0165693 1.29411 0.0490948 1.42389L1.56775 7.4985C1.5881 7.57942 1.63272 7.65218 1.69561 7.70703C1.75849 7.76187 1.83665 7.79618 1.91959 7.80534L8.59397 8.54748C8.70502 8.56084 8.80732 8.61442 8.88154 8.6981C8.95576 8.78178 8.99674 8.88975 8.99674 9.0016C8.99674 9.11345 8.95576 9.22143 8.88154 9.3051C8.80732 9.38878 8.70502 9.44237 8.59397 9.45572L1.91959 10.1979C1.83665 10.207 1.75849 10.2413 1.69561 10.2962C1.63272 10.351 1.5881 10.4238 1.56775 10.5047L0.0490948 16.5785C0.0165693 16.7083 8.15041e-05 16.8416 4.73632e-07 16.9753V17.004C-2.55504e-05 17.1732 0.0429762 17.3395 0.124962 17.4875C0.206947 17.6355 0.325223 17.7602 0.468665 17.8499C0.612107 17.9396 0.776003 17.9913 0.944939 18.0002C1.11387 18.0091 1.2823 17.9749 1.43437 17.9008L17.2648 10.1774C17.4853 10.0699 17.6711 9.90252 17.8011 9.69449C17.9311 9.48645 18 9.24609 18 9.00078C18 8.75548 17.9311 8.51511 17.8011 8.30708C17.6711 8.09904 17.4861 7.93171 17.2657 7.82416Z" fill="#A8ABBD"/>
</g>
</svg>
